<mxfile host="app.diagrams.net" modified="2021-06-01T07:59:30.226Z" agent="5.0 (Windows NT 10.0; Win64; x64) AppleWebKit/537.36 (KHTML, like Gecko) Chrome/91.0.4472.77 Safari/537.36" etag="8B0JfWJJg2B3ZKkyYFMy" version="14.7.0" type="github">
  <diagram id="nRoWoWauHmWR9sNnY2lx" name="Page-1">
    <mxGraphModel dx="780" dy="1112" grid="1" gridSize="10" guides="1" tooltips="1" connect="1" arrows="1" fold="1" page="1" pageScale="1" pageWidth="827" pageHeight="1169" math="0" shadow="0">
      <root>
        <mxCell id="0" />
        <mxCell id="1" parent="0" />
        <mxCell id="m4Q2QqAQoemr7U1eXL4K-1" value="" style="whiteSpace=wrap;html=1;aspect=fixed;" vertex="1" parent="1">
          <mxGeometry x="80" y="220" width="550" height="550" as="geometry" />
        </mxCell>
        <mxCell id="m4Q2QqAQoemr7U1eXL4K-8" style="edgeStyle=orthogonalEdgeStyle;rounded=0;orthogonalLoop=1;jettySize=auto;html=1;" edge="1" parent="1" source="m4Q2QqAQoemr7U1eXL4K-2" target="m4Q2QqAQoemr7U1eXL4K-6">
          <mxGeometry relative="1" as="geometry" />
        </mxCell>
        <mxCell id="m4Q2QqAQoemr7U1eXL4K-2" value="메일 입력&lt;br&gt;mailSend.jsp" style="rounded=0;whiteSpace=wrap;html=1;fillColor=#dae8fc;strokeColor=#6c8ebf;" vertex="1" parent="1">
          <mxGeometry x="100" y="450" width="120" height="60" as="geometry" />
        </mxCell>
        <mxCell id="m4Q2QqAQoemr7U1eXL4K-3" value="이메일" style="text;html=1;strokeColor=none;fillColor=none;align=center;verticalAlign=middle;whiteSpace=wrap;rounded=0;" vertex="1" parent="1">
          <mxGeometry x="90" y="230" width="80" height="30" as="geometry" />
        </mxCell>
        <mxCell id="m4Q2QqAQoemr7U1eXL4K-4" value="파랑- JSP" style="text;html=1;strokeColor=#6c8ebf;fillColor=#dae8fc;align=center;verticalAlign=middle;whiteSpace=wrap;rounded=0;" vertex="1" parent="1">
          <mxGeometry x="540" y="220" width="90" height="20" as="geometry" />
        </mxCell>
        <mxCell id="m4Q2QqAQoemr7U1eXL4K-5" value="초록- Servlet" style="text;html=1;strokeColor=#82b366;fillColor=#d5e8d4;align=center;verticalAlign=middle;whiteSpace=wrap;rounded=0;" vertex="1" parent="1">
          <mxGeometry x="540" y="240" width="90" height="20" as="geometry" />
        </mxCell>
        <mxCell id="m4Q2QqAQoemr7U1eXL4K-9" style="edgeStyle=orthogonalEdgeStyle;rounded=0;orthogonalLoop=1;jettySize=auto;html=1;" edge="1" parent="1" source="m4Q2QqAQoemr7U1eXL4K-6" target="m4Q2QqAQoemr7U1eXL4K-7">
          <mxGeometry relative="1" as="geometry" />
        </mxCell>
        <mxCell id="m4Q2QqAQoemr7U1eXL4K-6" value="구글 SMTP 인증&lt;br&gt;mailLogin.java" style="rounded=0;whiteSpace=wrap;html=1;fillColor=#d5e8d4;strokeColor=#82b366;" vertex="1" parent="1">
          <mxGeometry x="300" y="450" width="120" height="60" as="geometry" />
        </mxCell>
        <mxCell id="m4Q2QqAQoemr7U1eXL4K-7" value="구글로 메일 전송&lt;br&gt;mailSendServlet.java" style="rounded=0;whiteSpace=wrap;html=1;fillColor=#d5e8d4;strokeColor=#82b366;" vertex="1" parent="1">
          <mxGeometry x="480" y="450" width="120" height="60" as="geometry" />
        </mxCell>
      </root>
    </mxGraphModel>
  </diagram>
</mxfile>
